<svg width="20" height="21" viewBox="0 0 20 21" fill="none" xmlns="http://www.w3.org/2000/svg">
<path d="M12.4999 15.5V16.125C12.4999 16.788 12.2366 17.4239 11.7677 17.8928C11.2989 18.3616 10.663 18.625 9.99995 18.625C9.33691 18.625 8.70102 18.3616 8.23218 17.8928C7.76334 17.4239 7.49995 16.788 7.49995 16.125V15.5M16.7062 14.2277C15.7031 13 14.9949 12.375 14.9949 8.99023C14.9949 5.89063 13.4121 4.78633 12.1093 4.25C11.9363 4.17891 11.7734 4.01562 11.7207 3.83789C11.4921 3.06016 10.8515 2.375 9.99995 2.375C9.14839 2.375 8.50737 3.06055 8.2812 3.83867C8.22846 4.01836 8.06557 4.17891 7.89253 4.25C6.58823 4.78711 5.00698 5.8875 5.00698 8.99023C5.00503 12.375 4.29682 13 3.2937 14.2277C2.87807 14.7363 3.24214 15.5 3.96909 15.5H16.0347C16.7578 15.5 17.1195 14.734 16.7062 14.2277Z" stroke="#201515" stroke-width="1.5" stroke-linecap="round" stroke-linejoin="round"/>
</svg>
