<svg width="20" height="20" viewBox="0 0 20 20" fill="none" xmlns="http://www.w3.org/2000/svg">
<path d="M7.06167 9.16667C6.15517 9.16667 5.26903 8.89786 4.5153 8.39424C3.76158 7.89062 3.17412 7.1748 2.82722 6.3373C2.48032 5.49981 2.38955 4.57825 2.5664 3.68917C2.74325 2.80009 3.17977 1.98342 3.82076 1.34243C4.46175 0.701439 5.27842 0.264918 6.1675 0.0880695C7.05658 -0.0887794 7.97814 0.0019859 8.81563 0.348888C9.65313 0.695789 10.3689 1.28325 10.8726 2.03697C11.3762 2.7907 11.645 3.67684 11.645 4.58334C11.6437 5.79851 11.1604 6.96353 10.3011 7.82278C9.44186 8.68204 8.27684 9.16535 7.06167 9.16667ZM7.06167 1.66667C6.4848 1.66667 5.9209 1.83773 5.44125 2.15822C4.96161 2.4787 4.58777 2.93422 4.36702 3.46718C4.14626 4.00013 4.0885 4.58657 4.20104 5.15235C4.31358 5.71813 4.59137 6.23783 4.99927 6.64573C5.40718 7.05363 5.92688 7.33142 6.49265 7.44396C7.05843 7.5565 7.64488 7.49874 8.17783 7.27799C8.71078 7.05723 9.1663 6.68339 9.48679 6.20375C9.80727 5.72411 9.97833 5.1602 9.97833 4.58334C9.97833 3.80979 9.67104 3.06792 9.12406 2.52094C8.57708 1.97396 7.83521 1.66667 7.06167 1.66667ZM14.1667 20C13.0129 20 11.8851 19.6579 10.9258 19.0169C9.96655 18.3759 9.21888 17.4649 8.77737 16.399C8.33586 15.3331 8.22034 14.1602 8.44542 13.0286C8.6705 11.8971 9.22607 10.8577 10.0419 10.0419C10.8577 9.22607 11.8971 8.6705 13.0286 8.44542C14.1602 8.22034 15.3331 8.33586 16.399 8.77737C17.4649 9.21888 18.3759 9.96656 19.0169 10.9258C19.6579 11.8851 20 13.0129 20 14.1667C19.9982 15.7132 19.3831 17.1959 18.2895 18.2895C17.1959 19.3831 15.7132 19.9982 14.1667 20ZM14.1667 10C13.3426 10 12.537 10.2444 11.8518 10.7022C11.1666 11.1601 10.6325 11.8108 10.3172 12.5722C10.0018 13.3335 9.91929 14.1713 10.0801 14.9795C10.2408 15.7878 10.6377 16.5302 11.2204 17.1129C11.8031 17.6957 12.5455 18.0925 13.3538 18.2533C14.162 18.414 14.9998 18.3315 15.7612 18.0162C16.5225 17.7008 17.1733 17.1668 17.6311 16.4815C18.089 15.7963 18.3333 14.9908 18.3333 14.1667C18.332 13.062 17.8926 12.003 17.1115 11.2219C16.3304 10.4407 15.2713 10.0013 14.1667 10ZM16.4225 15.2442L15 13.8217V11.6667H13.3333V14.5117L15.2442 16.4225L16.4225 15.2442ZM7.45583 10.8333H4.16667C3.062 10.8347 2.00296 11.2741 1.22185 12.0552C0.440735 12.8363 0.00132321 13.8953 0 15L0 20H1.66667V15C1.66667 14.337 1.93006 13.7011 2.3989 13.2322C2.86774 12.7634 3.50363 12.5 4.16667 12.5H6.85917C6.99043 11.9225 7.19076 11.3629 7.45583 10.8333Z" fill="black"/>
</svg>
