<svg width="18" height="18" viewBox="0 0 18 18" fill="none" xmlns="http://www.w3.org/2000/svg">
<path d="M9.00001 1.5C4.85813 1.5 1.50001 4.85813 1.50001 9C1.50001 10.3531 1.85751 11.6206 2.48313 12.7156C2.52448 12.7879 2.55098 12.8677 2.56107 12.9503C2.57116 13.033 2.56464 13.1168 2.54188 13.1969L1.64251 16.3587L4.80563 15.4587C4.88572 15.436 4.96954 15.4295 5.05219 15.4396C5.13483 15.4496 5.21462 15.4761 5.28688 15.5175C6.41766 16.1634 7.69777 16.5021 9.00001 16.5C13.1425 16.5 16.5 13.1419 16.5 9C16.5 4.85813 13.1425 1.5 9.00001 1.5ZM0.250007 9C0.250007 4.1675 4.16751 0.25 9.00001 0.25C13.8325 0.25 17.75 4.1675 17.75 9C17.75 13.8325 13.8325 17.75 9.00001 17.75C7.52001 17.75 6.12376 17.3819 4.90001 16.7319L1.44501 17.7144C1.28443 17.7599 1.11462 17.7617 0.953102 17.7197C0.791586 17.6776 0.644225 17.5932 0.52624 17.4751C0.408255 17.3571 0.323923 17.2097 0.281955 17.0482C0.239986 16.8866 0.241903 16.7168 0.287507 16.5562L1.27001 13.1019C0.598469 11.839 0.24816 10.4303 0.250007 9ZM5.25001 7.125C5.25001 6.95924 5.31586 6.80027 5.43306 6.68306C5.55028 6.56585 5.70925 6.5 5.87501 6.5H12.125C12.2908 6.5 12.4497 6.56585 12.5669 6.68306C12.6842 6.80027 12.75 6.95924 12.75 7.125C12.75 7.29076 12.6842 7.44973 12.5669 7.56694C12.4497 7.68415 12.2908 7.75 12.125 7.75H5.87501C5.70925 7.75 5.55028 7.68415 5.43306 7.56694C5.31586 7.44973 5.25001 7.29076 5.25001 7.125ZM5.87501 10.25C5.70925 10.25 5.55028 10.3158 5.43306 10.4331C5.31586 10.5503 5.25001 10.7092 5.25001 10.875C5.25001 11.0408 5.31586 11.1997 5.43306 11.3169C5.55028 11.4342 5.70925 11.5 5.87501 11.5H9.62501C9.79077 11.5 9.94974 11.4342 10.0669 11.3169C10.1842 11.1997 10.25 11.0408 10.25 10.875C10.25 10.7092 10.1842 10.5503 10.0669 10.4331C9.94974 10.3158 9.79077 10.25 9.62501 10.25H5.87501Z" fill="black"/>
</svg>
